# xmcd
#
# Track frame offsets: 
#        150
#        16761
#        35880
#        62533
#        78086
#        99509
#        115295
#        130087
#        132372
#        139808
#        153307
#        162808
#        193884
#        208154
#        226686
#        241276
#        256842
#        269626
#        286255
#        312696
#        326753
#
# Disc length: 4564 seconds
#
# Revision: 0
# Processed by: cddbd v1.5.2PL0 Copyright (c) Steve Scherf et al.
# Submitted via: ExactAudioCopy v0.95b4
#
DISCID=2d11d215
DTITLE=Various Artist - Music Maker Relief Foundation-Blues Sweet Blu
DTITLE=es
DYEAR=2007
DGENRE=Blues
TTITLE0=1. Music Maker Relief Foundation - Carl Rutherford - Blues, Sw
TTITLE0=eet Blues (3:41)
TTITLE1=2. Music Maker Relief Foundation - Guitar Gabriel - After Awhi
TTITLE1=le (4:14)
TTITLE2=3. Music Maker Relief Foundation - Pura Fe' - Hold The Rain (5
TTITLE2=:55)
TTITLE3=4. Music Maker Relief Foundation - John Dee Holeman - One Blac
TTITLE3=k Rat (3:27)
TTITLE4=5. Music Maker Relief Foundation - Cora Mae Bryant - Cora's Es
TTITLE4=cape (4:45)
TTITLE5=6. Music Maker Relief Foundation - Macavine Hayes, Whistlin' B
TTITLE5=ritches and Cool John - Mac's Boogie (3:30)
TTITLE6=7. Music Maker Relief Foundation - Samuel Turner Stevens - Bab
TTITLE6=y' O (3:17)
TTITLE7=8. Music Maker Relief Foundation - Etta Baker - On The Banjo (
TTITLE7=0:30)
TTITLE8=9. Music Maker Relief Foundation - Etta Baker - Cripple Creek 
TTITLE8=(1:39)
TTITLE9=10. Music Maker Relief Foundation - Etta Baker - Susanna Gal (
TTITLE9=2:59)
TTITLE10=11. Music Maker Relief Foundation - Boo Hanks - Step It Up and 
TTITLE10=Go (2:06)
TTITLE11=12. Music Maker Relief Foundation - Neal Pattman - Ma's Apple
TTITLE11=Pie (6:54)
TTITLE12=13. Music Maker Relief Foundation - Jack Owens - My Baby's Go
TTITLE12=ne, Soon Be Gone Myself (3:10)
TTITLE13=14. Music Maker Relief Foundation - Elder James and Mother Paul
TTITLE13=ine Goins - Old Time Religion (4:07)
TTITLE14=15. Music Maker Relief Foundation - The Branchettes - One Mor
TTITLE14=e Day (3:14)
TTITLE15=16. Music Maker Relief Foundation - Albert White - A Rose For
TTITLE15=My Lady (3:27)
TTITLE16=17. Music Maker Relief Foundation - Sweet Betty - Your Time T
TTITLE16=o Cry (2:50)
TTITLE17=18. Music Maker Relief Foundation - Adolphus Bell - Child Sup
TTITLE17=port (3:41)
TTITLE18=19. Music Maker Relief Foundation - Ron Hunter - For Yourself
TTITLE18=(5:52)
TTITLE19=20. Music Maker Relief Foundation - Elder Anderson Johnson - 
TTITLE19=God Don't Like It (3:07)
TTITLE20=21. Music Maker Relief Foundation - Elder Anderson Johnson - 
TTITLE20=Many A Mile (3:27)
EXTD=
EXTT0=
EXTT1=
EXTT2=
EXTT3=
EXTT4=
EXTT5=
EXTT6=
EXTT7=
EXTT8=
EXTT9=
EXTT10=
EXTT11=
EXTT12=
EXTT13=
EXTT14=
EXTT15=
EXTT16=
EXTT17=
EXTT18=
EXTT19=
EXTT20=
PLAYORDER=
